<svg xmlns="http://www.w3.org/2000/svg" xmlns:xlink="http://www.w3.org/1999/xlink" id="Layer_1" x="0" y="0" version="1.1" viewBox="0 0 144 144" style="enable-background:new 0 0 144 144" xml:space="preserve"><style type="text/css">.st0{fill:#83d6ae}.st1{fill:#fff}</style><switch><g><g><rect width="126.1" height="126.1" x="10.1" y="7.3" class="st0"/><g><path d="M94.6,39.6V53H80.3V39.6H66V53H51.7V39.6H37.5v79.8l22,0V93.6c0-11.3,13.6-19.1,13.6-19.1 s13.6,7.8,13.6,19.1v25.8l22,0V39.6H94.6z" class="st1"/><polygon points="48.1 23.3 48.1 28.7 41.2 28.7 41.2 23.3 34.3 23.3 34.3 35.3 54.9 35.3 54.9 23.3" class="st1"/><polygon points="76.6 23.3 76.6 28.7 69.7 28.7 69.7 23.3 62.8 23.3 62.8 35.3 83.4 35.3 83.4 23.3" class="st1"/><polygon points="105.1 23.3 105.1 28.7 98.2 28.7 98.2 23.3 91.4 23.3 91.4 35.3 112 35.3 112 23.3" class="st1"/></g></g></g></switch></svg>