<svg xmlns="http://www.w3.org/2000/svg" xmlns:xlink="http://www.w3.org/1999/xlink" id="Layer_1" x="0" y="0" version="1.1" viewBox="0 0 240 228" style="enable-background:new 0 0 240 228" xml:space="preserve"><style type="text/css">.st0{fill:#6d8480}.st1{fill:#83d6ae}.st2{fill:#fff}</style><switch><g><g><g><path d="M16.9,172.2h-6.3v-4.9h6.3v-11.4h5.9v11.4h12.5v4.9H22.9v28.3c0,5.6,1.9,7.3,7.2,7.3h5.3v5h-6.3 c-7.9,0-12.2-3.3-12.2-12.3V172.2z" class="st0"/><path d="M46.6,212.8h-5.8v-45.5h5.8v8.1c2.5-5.6,7.8-8.9,15.6-8.9v6.1h-1.6c-7.6,0-14,3.4-14,14.8V212.8z" class="st0"/><path d="M86.5,213.5c-12.9,0-22.4-9-22.4-23.4c0-14.5,9.3-23.4,22.4-23.4c13.3,0,21.5,9.5,21.5,21.1 c0,1.8,0,3-0.2,4.6H70.1c0.5,10.7,7.9,16.3,16.4,16.3c7.8,0,13-4.1,14.7-10.2h6.2C105.3,207,97.9,213.5,86.5,213.5z M70.1,187.5 h32c0.3-10.6-7.4-15.9-15.8-15.9C78,171.6,70.7,176.9,70.1,187.5z" class="st0"/><path d="M148.6,186.8c0-10.1-5.5-15.3-13.8-15.3c-8.5,0-14.4,5.3-14.4,16.4v24.9h-5.8v-45.5h5.8v7.8 c2.9-5.7,8.8-8.6,15.5-8.6c10.3,0,18.5,6.3,18.5,19.7v26.7h-5.8V186.8z" class="st0"/><path d="M164.8,172.2h-6.3v-4.9h6.3v-11.4h5.9v11.4h12.5v4.9h-12.5v28.3c0,5.6,1.9,7.3,7.2,7.3h5.3v5H177 c-7.9,0-12.2-3.3-12.2-12.3V172.2z" class="st0"/><path d="M208.6,213.5c-12.8,0-22.6-9-22.6-23.4c0-14.5,10-23.4,22.8-23.4c12.8,0,22.8,8.9,22.8,23.4 C231.5,204.5,221.4,213.5,208.6,213.5z M208.6,208.4c8.6,0,16.9-5.8,16.9-18.3c0-12.5-8.2-18.3-16.8-18.3s-16.8,5.8-16.8,18.3 C191.9,202.5,199.9,208.4,208.6,208.4z" class="st0"/></g><g><rect width="126.1" height="126.1" x="58.1" y="11.7" class="st1"/><g><path d="M142.6,44v13.4h-14.3V44H114v13.4H99.7V44H85.5v79.8l22,0V98c0-11.3,13.6-19.1,13.6-19.1 s13.6,7.8,13.6,19.1v25.8l22,0V44H142.6z" class="st2"/><polygon points="96.1 27.7 96.1 33.1 89.2 33.1 89.2 27.7 82.3 27.7 82.3 39.7 102.9 39.7 102.9 27.7" class="st2"/><polygon points="124.6 27.7 124.6 33.1 117.7 33.1 117.7 27.7 110.8 27.7 110.8 39.7 131.4 39.7 131.4 27.7" class="st2"/><polygon points="153.1 27.7 153.1 33.1 146.2 33.1 146.2 27.7 139.4 27.7 139.4 39.7 160 39.7 160 27.7" class="st2"/></g></g></g></g></switch></svg>